<svg xmlns="http://www.w3.org/2000/svg" viewBox="0 0 31 31" ><path d="M14.724.005c-2.488.03-7.836.439-10.828 3.183C1.671 5.393.894 8.653.803 12.684.727 16.7.636 24.243 7.907 26.296v3.128s-.046 1.252.782 1.508c1.019.323 1.599-.64 2.568-1.675l1.807-2.043c4.975.414 8.785-.54 9.224-.681 1.009-.323 6.695-1.049 7.624-8.593.953-7.791-.464-12.699-3.023-14.92h-.015C26.101 2.31 22.998.049 16.066.024c0 0-.514-.035-1.342-.02v.001zm.085 2.19c.706-.005 1.135.025 1.135.025 5.868.015 8.668 1.782 9.329 2.376 2.155 1.846 3.265 6.272 2.452 12.776-.772 6.307-5.383 6.706-6.237 6.978-.363.116-3.719.944-7.947.671 0 0-3.149 3.799-4.133 4.778-.156.172-.338.222-.454.197-.167-.041-.217-.247-.207-.53l.03-5.192c-6.166-1.705-5.803-8.139-5.737-11.499.076-3.361.706-6.11 2.584-7.972 2.527-2.285 7.069-2.593 9.183-2.609h.002zm.465 3.36c-.051-.001-.101.009-.148.028s-.09.047-.126.083-.065.078-.085.125-.03.097-.03.148a.39.39 0 0 0 .389.388 7.28 7.28 0 0 1 5.207 2.054c1.408 1.367 2.093 3.204 2.12 5.605a.39.39 0 0 0 .389.389v-.016c.102 0 .2-.04.273-.112a.39.39 0 0 0 .115-.272c.047-1.13-.136-2.259-.539-3.316s-1.016-2.022-1.803-2.835c-1.533-1.499-3.477-2.271-5.762-2.271h0zm-5.106.888c-.274-.04-.554.015-.792.156h-.02a6.08 6.08 0 0 0-1.478 1.216c-.354.409-.545.822-.596 1.221a1.65 1.65 0 0 0 .061.701l.025.015c.398 1.17.918 2.296 1.554 3.356.819 1.489 1.826 2.866 2.997 4.097l.035.05.055.041.035.041.041.035c1.235 1.175 2.616 2.187 4.108 3.012 1.705.928 2.74 1.367 3.361 1.549v.01a1.74 1.74 0 0 0 .514.08c.529-.039 1.03-.254 1.423-.61a5.87 5.87 0 0 0 1.201-1.483v-.01c.297-.56.197-1.09-.232-1.448-.859-.751-1.789-1.419-2.775-1.993-.661-.358-1.332-.141-1.604.222l-.58.732c-.297.363-.838.313-.838.313l-.015.01c-4.031-1.03-5.106-5.111-5.106-5.111s-.05-.555.323-.838l.726-.585c.348-.283.59-.953.217-1.615-.57-.988-1.236-1.918-1.988-2.775-.164-.202-.395-.34-.651-.388l.002.002zm5.777 1.151c-.514 0-.514.777.005.777a4.87 4.87 0 0 1 3.421 1.483c.406.448.717.972.917 1.542s.282 1.175.244 1.778a.39.39 0 0 0 .389.384l.015.02a.39.39 0 0 0 .389-.389c.035-1.539-.444-2.831-1.383-3.865S17.681 7.709 16 7.594h-.055zm.636 2.089c-.53-.016-.55.777-.025.792 1.277.066 1.897.711 1.978 2.038.002.101.043.197.115.268s.168.111.269.111h.015a.39.39 0 0 0 .273-.129.39.39 0 0 0 .1-.285c-.091-1.73-1.035-2.705-2.71-2.795h-.015v-.001z" fill="#ffc700"/></svg>