<svg viewBox="0 0 28 28" fill="none" xmlns="http://www.w3.org/2000/svg">
<path d="M26.75 8.33333V19.6667C26.75 21.5453 26.0037 23.347 24.6753 24.6753C23.347 26.0037 21.5453 26.75 19.6667 26.75H8.33333C6.45472 26.75 4.65304 26.0037 3.32466 24.6753C1.99628 23.347 1.25 21.5453 1.25 19.6667V8.33333C1.25 6.45472 1.99628 4.65304 3.32466 3.32466C4.65304 1.99628 6.45472 1.25 8.33333 1.25H19.6667C21.5453 1.25 23.347 1.99628 24.6753 3.32466C26.0037 4.65304 26.75 6.45472 26.75 8.33333Z" stroke="#FFC700" stroke-width="2.5" stroke-linecap="round" stroke-linejoin="round"/>
<path d="M12.583 26.7502V14.0002C12.583 10.9005 13.2913 8.3335 18.2497 8.3335" stroke="#FFC700" stroke-width="2.5" stroke-linecap="round" stroke-linejoin="round"/>
<path d="M9.75 15.4165H18.25" stroke="#FFC700" stroke-width="2.5" stroke-linecap="round" stroke-linejoin="round"/>
</svg>
