<svg xmlns="http://www.w3.org/2000/svg" viewBox="0 0 19 23">
		<path class="delicate" d="M.764.305h6.074c1.872 0 3.541.285 5.006.855s2.696 1.353 3.693 2.35a9.58 9.58 0 0 1 2.289 3.541c.529 1.343.794 2.808.794 4.395s-.285 3.062-.855 4.426a10.42 10.42 0 0 1-2.411 3.54c-1.017.977-2.238 1.75-3.663 2.32s-2.981.855-4.67.855H.764V.305zm4.151 3.846v14.59h1.618c1.221 0 2.32-.183 3.296-.549s1.801-.875 2.472-1.526c.692-.671 1.221-1.445 1.587-2.32.387-.895.58-1.862.58-2.9 0-1.078-.163-2.055-.488-2.93a6.08 6.08 0 0 0-1.496-2.32c-.671-.651-1.516-1.15-2.533-1.496-1.017-.366-2.218-.549-3.602-.549H4.915zM21. .305z" fill="#ffc700"/>
</svg>