<svg xmlns="http://www.w3.org/2000/svg" width="28" height="28" stroke="#ffc700" stroke-width="2.5" stroke-linejoin="round" ><path d="M26.75 8.333v11.333c0 1.879-.746 3.68-2.075 5.009s-3.13 2.075-5.009 2.075H8.333c-1.879 0-3.68-.746-5.009-2.075s-2.075-3.13-2.075-5.009V8.333c0-1.879.746-3.68 2.075-5.009S6.455 1.25 8.333 1.25h11.333c1.879 0 3.68.746 5.009 2.075s2.075 3.13 2.075 5.009z"/><g stroke-linecap="round"><path d="M12.583 26.75V14c0-3.1.708-5.667 5.667-5.667"/><path d="M9.75 15.417h8.5"/></g></svg>