<svg xmlns="http://www.w3.org/2000/svg" width="35" height="35" ><path d="M20.814 7.389a7.58 7.58 0 0 1 5.988 5.988M20.814 1.326c3.076.342 5.945 1.719 8.134 3.906s3.571 5.054 3.916 8.129m-1.516 12.096v4.547a3.03 3.03 0 0 1-.982 2.246 3.03 3.03 0 0 1-2.322.785 30 30 0 0 1-13.082-4.654 29.56 29.56 0 0 1-9.095-9.095A30 30 0 0 1 1.214 6.146a3.03 3.03 0 0 1 .78-2.317 3.03 3.03 0 0 1 2.236-.988h4.548a3.03 3.03 0 0 1 3.032 2.607c.192 1.455.548 2.884 1.061 4.259a3.03 3.03 0 0 1-.682 3.198l-1.925 1.925c2.158 3.795 5.3 6.937 9.095 9.095l1.925-1.925a3.03 3.03 0 0 1 3.198-.682c1.375.513 2.804.869 4.26 1.061a3.03 3.03 0 0 1 2.607 3.077z" stroke="#ffc700" stroke-width="2.274" stroke-linecap="round" stroke-linejoin="round"/></svg>