<svg xmlns="http://www.w3.org/2000/svg">

	<symbol id="arrow_down" viewBox="0 0 8 4.5" fill="none" >
		<path d="M1 1L3.29289 3.29289C3.68342 3.68342 4.31658 3.68342 4.70711 3.29289L7 1" stroke-linecap="round"/>
	</symbol>
	<symbol id="arrow_left" viewBox="0 0 13 24" fill="none">
		<path d="M11.667 1L1.374 11.293a1 1 0 0 0 0 1.414L11.667 23" stroke-width="1.5" stroke-linecap="round"/>
	</symbol>
	<symbol id="arrow_right" viewBox="0 0 13 24" fill="none">
		<path d="M1.333 23l10.293-10.293a1 1 0 0 0 0-1.414L1.333 1" stroke-width="1.5" stroke-linecap="round"/>
	</symbol>

	<symbol id="maximize" viewBox="1 1 40 40">
		<path d="M0 0h41.386v41.386H0z"/>
		<g class="arrow" stroke-width="1.641" stroke-linecap="round" stroke-linejoin="round">
			<path class="arrow" d="M25.082 10.033h6.271v6.271M16.304 31.353h-6.271v-6.27"/>
			<path class="arrow" d="M31.353 10.033l-7.525 7.525M10.033 31.353l7.525-7.525"/>
		</g>
	</symbol>
	<symbol id="close" viewBox="12 12 25 25" fill="none" stroke-width="1.5" stroke-linecap="round">
		<path d="M35.6281 35.6271L13.3435 13.3425"/>
		<path d="M35.6272 13.3425L13.3426 35.6271"/>
	</symbol>
	<symbol id="phone" viewBox="-1 0 36 35">
		<path d="M20.814 7.389a7.58 7.58 0 0 1 5.988 5.988M20.814 1.326c3.076.342 5.945 1.719 8.134 3.906s3.571 5.054 3.916 8.129m-1.516 12.096v4.547a3.03 3.03 0 0 1-.982 2.246 3.03 3.03 0 0 1-2.322.785 30 30 0 0 1-13.082-4.654 29.56 29.56 0 0 1-9.095-9.095A30 30 0 0 1 1.214 6.146a3.03 3.03 0 0 1 .78-2.317 3.03 3.03 0 0 1 2.236-.988h4.548a3.03 3.03 0 0 1 3.032 2.607c.192 1.455.548 2.884 1.061 4.259a3.03 3.03 0 0 1-.682 3.198l-1.925 1.925c2.158 3.795 5.3 6.937 9.095 9.095l1.925-1.925a3.03 3.03 0 0 1 3.198-.682c1.375.513 2.804.869 4.26 1.061a3.03 3.03 0 0 1 2.607 3.077z" fill="none" stroke="#ffc700" stroke-width="2.274" stroke-linecap="round" stroke-linejoin="round"/>
	</symbol>
	<symbol id="map" fill="none" stroke="#ffc700" stroke-width="1.5" stroke-linejoin="round" viewBox="3 3 19 19">
		<path d="M4.167 6.018l5.208-1.852v14.815l-5.208 1.852V6.018zm11.458 0l5.208-1.852v14.815l-5.208 1.852V6.018z"/><path d="M15.625 6.018l-6.25-1.852v14.815l6.25 1.852V6.018z"/>
	</symbol>
	<symbol id="calendar" viewBox="3 2 18 20" fill="none" stroke="#ffc700" stroke-width="1.5" stroke-linejoin="round">
		<path d="M18.222 5H5.778A1.78 1.78 0 0 0 4 6.778v12.444A1.78 1.78 0 0 0 5.778 21h12.444A1.78 1.78 0 0 0 20 19.222V6.778A1.78 1.78 0 0 0 18.222 5z"/><path d="M16 3v4M8 3v4m-4 3h16" stroke-linecap="round"/>
	</symbol>

	<symbol id="facebook" viewBox="0 0 28 28" stroke-width="2.5" stroke-linejoin="round" fill="none">
		<path d="M26.75 8.333v11.333c0 1.879-.746 3.68-2.075 5.009s-3.13 2.075-5.009 2.075H8.333c-1.879 0-3.68-.746-5.009-2.075s-2.075-3.13-2.075-5.009V8.333c0-1.879.746-3.68 2.075-5.009S6.455 1.25 8.333 1.25h11.333c1.879 0 3.68.746 5.009 2.075s2.075 3.13 2.075 5.009z"/>
		<g stroke-linecap="round"><path d="M12.583 26.75V14c0-3.1.708-5.667 5.667-5.667"/><path d="M9.75 15.417h8.5"/></g>
	</symbol>
	<symbol id="instagram" viewBox="1 1 28 28">
		<path d="M20.4686 4.0623C21.9177 4.06663 23.3063 4.64423 24.331 5.66896C25.3558 6.69369 25.9334 8.08227 25.9377 9.53145V20.4686C25.9334 21.9177 25.3558 23.3063 24.331 24.331C23.3063 25.3558 21.9177 25.9334 20.4686 25.9377H9.53145C8.08227 25.9334 6.69369 25.3558 5.66896 24.331C4.64423 23.3063 4.06663 21.9177 4.0623 20.4686V9.53145C4.06663 8.08227 4.64423 6.69369 5.66896 5.66896C6.69369 4.64423 8.08227 4.06663 9.53145 4.0623H20.4686ZM20.4686 1.875H9.53145C5.32031 1.875 1.875 5.32031 1.875 9.53145V20.4686C1.875 24.6797 5.32031 28.125 9.53145 28.125H20.4686C24.6797 28.125 28.125 24.6797 28.125 20.4686V9.53145C28.125 5.32031 24.6797 1.875 20.4686 1.875Z"/>
		<path d="M22.1092 9.53125C21.7847 9.53125 21.4675 9.43503 21.1977 9.25476C20.9279 9.07448 20.7176 8.81825 20.5934 8.51847C20.4693 8.21868 20.4368 7.88881 20.5001 7.57056C20.5634 7.25231 20.7196 6.95997 20.9491 6.73053C21.1785 6.50108 21.4709 6.34483 21.7891 6.28152C22.1074 6.21822 22.4372 6.25071 22.737 6.37489C23.0368 6.49906 23.293 6.70934 23.4733 6.97914C23.6536 7.24894 23.7498 7.56614 23.7498 7.89063C23.7503 8.10621 23.7081 8.31975 23.6259 8.51901C23.5436 8.71827 23.4227 8.89932 23.2703 9.05176C23.1179 9.2042 22.9368 9.32502 22.7376 9.40731C22.5383 9.48959 22.3248 9.53171 22.1092 9.53125ZM15 10.6246C15.8653 10.6246 16.7112 10.8812 17.4307 11.362C18.1502 11.8427 18.711 12.526 19.0421 13.3255C19.3733 14.125 19.4599 15.0047 19.2911 15.8534C19.1223 16.7021 18.7056 17.4817 18.0937 18.0935C17.4818 18.7054 16.7023 19.1221 15.8536 19.2909C15.0049 19.4598 14.1251 19.3731 13.3257 19.042C12.5262 18.7108 11.8429 18.15 11.3622 17.4305C10.8814 16.711 10.6248 15.8651 10.6248 14.9998C10.626 13.8398 11.0874 12.7277 11.9076 11.9074C12.7279 11.0872 13.84 10.6259 15 10.6246ZM15 8.43731C13.7021 8.43731 12.4333 8.82219 11.3541 9.54329C10.2749 10.2644 9.43374 11.2893 8.93704 12.4884C8.44034 13.6876 8.31038 15.0071 8.5636 16.2801C8.81681 17.5531 9.44183 18.7224 10.3596 19.6402C11.2774 20.558 12.4467 21.183 13.7197 21.4362C14.9927 21.6894 16.3122 21.5595 17.5114 21.0628C18.7105 20.5661 19.7354 19.7249 20.4565 18.6457C21.1776 17.5665 21.5625 16.2977 21.5625 14.9998C21.5625 13.2593 20.8711 11.5901 19.6404 10.3594C18.4097 9.12871 16.7405 8.43731 15 8.43731Z"/>
	</symbol>
	<symbol id="viber" viewBox="0 0 31 31">
		<path d="M14.724.005c-2.488.03-7.836.439-10.828 3.183C1.671 5.393.894 8.653.803 12.684.727 16.7.636 24.243 7.907 26.296v3.128s-.046 1.252.782 1.508c1.019.323 1.599-.64 2.568-1.675l1.807-2.043c4.975.414 8.785-.54 9.224-.681 1.009-.323 6.695-1.049 7.624-8.593.953-7.791-.464-12.699-3.023-14.92h-.015C26.101 2.31 22.998.049 16.066.024c0 0-.514-.035-1.342-.02v.001zm.085 2.19c.706-.005 1.135.025 1.135.025 5.868.015 8.668 1.782 9.329 2.376 2.155 1.846 3.265 6.272 2.452 12.776-.772 6.307-5.383 6.706-6.237 6.978-.363.116-3.719.944-7.947.671 0 0-3.149 3.799-4.133 4.778-.156.172-.338.222-.454.197-.167-.041-.217-.247-.207-.53l.03-5.192c-6.166-1.705-5.803-8.139-5.737-11.499.076-3.361.706-6.11 2.584-7.972 2.527-2.285 7.069-2.593 9.183-2.609h.002zm.465 3.36c-.051-.001-.101.009-.148.028s-.09.047-.126.083-.065.078-.085.125-.03.097-.03.148a.39.39 0 0 0 .389.388 7.28 7.28 0 0 1 5.207 2.054c1.408 1.367 2.093 3.204 2.12 5.605a.39.39 0 0 0 .389.389v-.016c.102 0 .2-.04.273-.112a.39.39 0 0 0 .115-.272c.047-1.13-.136-2.259-.539-3.316s-1.016-2.022-1.803-2.835c-1.533-1.499-3.477-2.271-5.762-2.271h0zm-5.106.888c-.274-.04-.554.015-.792.156h-.02a6.08 6.08 0 0 0-1.478 1.216c-.354.409-.545.822-.596 1.221a1.65 1.65 0 0 0 .061.701l.025.015c.398 1.17.918 2.296 1.554 3.356.819 1.489 1.826 2.866 2.997 4.097l.035.05.055.041.035.041.041.035c1.235 1.175 2.616 2.187 4.108 3.012 1.705.928 2.74 1.367 3.361 1.549v.01a1.74 1.74 0 0 0 .514.08c.529-.039 1.03-.254 1.423-.61a5.87 5.87 0 0 0 1.201-1.483v-.01c.297-.56.197-1.09-.232-1.448-.859-.751-1.789-1.419-2.775-1.993-.661-.358-1.332-.141-1.604.222l-.58.732c-.297.363-.838.313-.838.313l-.015.01c-4.031-1.03-5.106-5.111-5.106-5.111s-.05-.555.323-.838l.726-.585c.348-.283.59-.953.217-1.615-.57-.988-1.236-1.918-1.988-2.775-.164-.202-.395-.34-.651-.388l.002.002zm5.777 1.151c-.514 0-.514.777.005.777a4.87 4.87 0 0 1 3.421 1.483c.406.448.717.972.917 1.542s.282 1.175.244 1.778a.39.39 0 0 0 .389.384l.015.02a.39.39 0 0 0 .389-.389c.035-1.539-.444-2.831-1.383-3.865S17.681 7.709 16 7.594h-.055zm.636 2.089c-.53-.016-.55.777-.025.792 1.277.066 1.897.711 1.978 2.038.002.101.043.197.115.268s.168.111.269.111h.015a.39.39 0 0 0 .273-.129.39.39 0 0 0 .1-.285c-.091-1.73-1.035-2.705-2.71-2.795h-.015v-.001z" />
	</symbol>
	<symbol id="telegram" viewBox="0 0 29 24">
		<path d="M25.75.721s2.509-.978 2.299 1.398c-.069.978-.696 4.403-1.184 8.107l-1.673 10.973s-.139 1.607-1.394 1.887-3.136-.978-3.485-1.258l-6.97-4.892c-.488-.42-1.046-1.258.07-2.237l7.318-6.989c.836-.838 1.673-2.795-1.812-.419L9.16 13.929s-1.115.699-3.206.07l-4.531-1.398s-1.673-1.048 1.185-2.096C9.579 7.22 18.152 3.866 25.749.721h.001z" />
	</symbol>

	<symbol id="logo_delicate" viewBox="0 0 137 41">
		<path class="delicate" d="M.764.305h6.074c1.872 0 3.541.285 5.006.855s2.696 1.353 3.693 2.35a9.58 9.58 0 0 1 2.289 3.541c.529 1.343.794 2.808.794 4.395s-.285 3.062-.855 4.426a10.42 10.42 0 0 1-2.411 3.54c-1.017.977-2.238 1.75-3.663 2.32s-2.981.855-4.67.855H.764V.305zm4.151 3.846v14.59h1.618c1.221 0 2.32-.183 3.296-.549s1.801-.875 2.472-1.526c.692-.671 1.221-1.445 1.587-2.32.387-.895.58-1.862.58-2.9 0-1.078-.163-2.055-.488-2.93a6.08 6.08 0 0 0-1.496-2.32c-.671-.651-1.516-1.15-2.533-1.496-1.017-.366-2.218-.549-3.602-.549H4.915zM21.776.305h13.216v3.968h-9.065v5.128h9.065v3.968h-9.065v5.25h9.065v3.968H21.776V.305zm16.75 0h4.151v18.313h8.149v3.968h-12.3V.305zm16.069 0h4.151v22.281h-4.151V.305zm18.938 22.587c-1.709 0-3.276-.295-4.7-.885-1.404-.61-2.605-1.424-3.602-2.442a11.09 11.09 0 0 1-2.32-3.632c-.549-1.404-.824-2.9-.824-4.487 0-1.669.295-3.195.885-4.578.59-1.404 1.394-2.615 2.411-3.632A11.25 11.25 0 0 1 69.015.855C70.419.285 71.925 0 73.533 0a11.17 11.17 0 0 1 2.991.397c.977.265 1.882.641 2.716 1.129.855.468 1.618 1.048 2.289 1.74a10.58 10.58 0 0 1 1.77 2.259l-3.632 2.32c-.651-1.16-1.475-2.075-2.472-2.747S74.977 4.09 73.533 4.09c-1.058 0-2.035.193-2.93.58a6.75 6.75 0 0 0-2.32 1.557c-.651.651-1.16 1.424-1.526 2.32s-.549 1.862-.549 2.9c0 1.017.183 1.974.549 2.869.366.875.865 1.648 1.496 2.32.651.651 1.414 1.17 2.289 1.557.895.366 1.862.549 2.9.549 1.546 0 2.849-.387 3.907-1.16a8.03 8.03 0 0 0 2.503-3.022l3.785 1.984c-.488.936-1.089 1.801-1.801 2.594a11.74 11.74 0 0 1-2.35 2.015c-.855.549-1.791.977-2.808 1.282a10.68 10.68 0 0 1-3.144.458zM92.789.305h4.182l7.936 22.281h-4.334l-1.374-3.968h-8.638l-1.374 3.968h-4.334L92.789.305zm-.824 14.345h5.86l-2.93-8.455-2.93 8.455zm17.386-10.377h-5.952V.305h16.085v3.968h-5.982v18.313h-4.151V4.273zM122.784.305H136v3.968h-9.065v5.128H136v3.968h-9.065v5.25H136v3.968h-13.216V.305z" fill="#ffc700"/>
		<path class="car" d="M99.91 37.825c-.165.772 0 1.453.494 2.044s1.139.886 1.933.886h6.737l.63-2.606h-3.125v-.008h-3.509a.33.33 0 0 1-.264-.119c-.068-.079-.094-.173-.077-.281l1.329-5.501c.028-.085.076-.153.145-.204s.133-.077.195-.077h2.206 4.582l.63-2.614h-7.869c-1.175 0-1.99.63-2.444 1.891l-1.593 6.592zm11.079 2.929h2.691l.767-3.142h4.054l.638-2.614h-4.062l.673-2.759c.023-.085.065-.153.128-.204s.133-.077.195-.077h4.599l-1.379 5.646-.767 3.151h2.708l2.768-11.412h-8.32c-1.124 0-1.911.63-2.359 1.891l-2.334 9.521zm19.595 0h3.032l-2.231-3.696h1.039c.585 0 1.098-.176 1.541-.528a2.41 2.41 0 0 0 .877-1.354l.503-2.265.145-.639c.159-.772-.009-1.453-.503-2.044-.488-.59-1.127-.886-1.916-.886h-5.544c-1.164 0-1.967.627-2.41 1.882l-2.248 9.513h2.836l.161-.715.137-.63.127-.528.103-.443.085-.375.068-.298.051-.238.043-.179c.017-.051.028-.094.034-.128l.025-.094c.006-.023.009-.04.009-.051.005-.017.008-.028.008-.034 0 .023-.003.028-.008.034h1.797l2.239 3.696zm1.678-6.583a.33.33 0 0 1-.341.239h-4.743l.477-2.18c.023-.08.068-.145.136-.196.068-.057.133-.085.196-.085h4.377c.102 0 .188.043.256.128a.32.32 0 0 1 .076.273l-.434 1.822z" fill="#e0e0e0"/>
	</symbol>
	<symbol id="logo_devpro" viewBox="5 6 94 26">
		<linearGradient id="gradient1" x1="25.114" y1="28.7253" x2="7.5756" y2="8.72724" gradientUnits="userSpaceOnUse">
			<stop stop-color="#F5C840"/>
			<stop offset="0.5" stop-color="#FA50A8"/>
			<stop offset="1" stop-color="#2A3ED7"/>
			</linearGradient>
			<linearGradient id="gradient2" x1="23.7927" y1="29.8773" x2="6.26445" y2="9.89071" gradientUnits="userSpaceOnUse">
			<stop stop-color="#F5C840"/>
			<stop offset="0.5" stop-color="#FA50A8"/>
			<stop offset="1" stop-color="#2A3ED7"/>
		</linearGradient>
		<path fill-rule="evenodd" clip-rule="evenodd" d="M84.6437 11.1747H80.4319V9.97132H84.6585C84.9972 9.95682 85.2623 10.2178 85.277 10.5512C85.2917 10.8847 85.0266 11.1602 84.6879 11.1747C84.6732 11.1747 84.6585 11.1747 84.6437 11.1747ZM84.9383 7.5791H78.1934V17.2785H80.6528V13.6394H83.716L85.5568 17.2785H88.0162L86.0575 13.4364C87.1326 13.016 88.0162 11.7546 88.0162 10.6092C88.0014 8.94194 86.6318 7.5791 84.9383 7.5791ZM74.2172 11.1747H69.9907V9.97132H74.2172C74.556 9.95682 74.821 10.2178 74.8358 10.5512C74.8505 10.8847 74.5854 11.1602 74.2467 11.1747C74.2467 11.1747 74.232 11.1747 74.2172 11.1747ZM93.627 14.8282C92.2722 14.8282 91.1824 13.7409 91.1824 12.407C91.1824 11.0732 92.2722 9.98582 93.627 9.98582C94.9819 9.98582 96.0717 11.0732 96.0717 12.407C96.0717 13.7554 94.9819 14.8282 93.627 14.8282ZM93.6123 7.5791C90.9026 7.5936 88.723 9.75384 88.723 12.4215C88.7378 15.0892 90.932 17.2495 93.6418 17.235C96.3367 17.2205 98.531 15.0602 98.531 12.407C98.531 9.73935 96.322 7.5791 93.6123 7.5791ZM74.3351 7.5791H67.5902V17.2785H70.0496V13.6394H74.3498C76.0434 13.6394 77.4129 12.2765 77.4129 10.6092C77.3982 8.94194 76.0286 7.5791 74.3351 7.5791ZM57.2815 24.9625L53.1728 14.1033H49.064L55.2345 30.3994H59.3433L65.5138 14.1033H61.405L57.2815 24.9625ZM31.3184 30.3994H47.7534V26.3254H35.4271V24.2956H47.7534V20.2071H35.4271V18.1773H47.7534V14.1033H31.3184V30.3994Z" fill="#7C7D82"/>
		<path id="dev_grad_1" fill="url(#gradient1)" d="M5.96387 7.59717V14.0634H17.5538C20.3224 14.0634 22.5609 16.2816 22.5609 19.0073C22.5609 21.733 20.3224 23.9512 17.5538 23.9512L9.91062 23.9802V30.4175H17.5685C23.9599 30.3885 29.129 25.2706 29.0995 18.9638C29.0701 12.7006 23.9304 7.64066 17.5685 7.61167H5.96387V7.59717Z" />
		<path id="dev_grad_2" fill="url(#gradient2)" d="M9.92578 17.9634V20.0511H17.5542C18.1285 20.0221 18.5704 19.5582 18.5704 18.9928C18.5704 18.4418 18.1285 17.9779 17.5542 17.9634H9.92578Z" />
	</symbol>

</svg>