<svg xmlns="http://www.w3.org/2000/svg">

	<symbol id="arrow_down">

	</symbol>

	<symbol id="instagram" width="38" height="38">
		<path d="M25.927 5.146a6.95 6.95 0 0 1 6.928 6.928v13.854a6.95 6.95 0 0 1-6.928 6.928H12.073a6.95 6.95 0 0 1-6.928-6.928V12.073a6.95 6.95 0 0 1 6.928-6.928h13.854zm0-2.771H12.073a9.73 9.73 0 0 0-9.698 9.698v13.854a9.73 9.73 0 0 0 9.698 9.698h13.854a9.73 9.73 0 0 0 9.698-9.698V12.073a9.73 9.73 0 0 0-9.698-9.698zm2.078 9.698a2.08 2.08 0 0 1-1.47-3.548 2.08 2.08 0 0 1 3.548 1.47 2.07 2.07 0 0 1-.157.796c-.104.252-.257.482-.45.675s-.422.346-.675.45-.523.158-.796.157zM19 13.458a5.54 5.54 0 0 1 3.919 9.461A5.54 5.54 0 0 1 13.458 19 5.55 5.55 0 0 1 19 13.458zm0-2.771a8.31 8.31 0 0 0-8.153 9.935c.321 1.613 1.112 3.094 2.275 4.256a8.31 8.31 0 0 0 9.059 1.802A8.31 8.31 0 0 0 27.313 19 8.31 8.31 0 0 0 19 10.688z"/>
	</symbol>

	<symbol id="facebook" width="28" height="28" stroke-width="2.5" stroke-linejoin="round">
		<path d="M26.75 8.333v11.333c0 1.879-.746 3.68-2.075 5.009s-3.13 2.075-5.009 2.075H8.333c-1.879 0-3.68-.746-5.009-2.075s-2.075-3.13-2.075-5.009V8.333c0-1.879.746-3.68 2.075-5.009S6.455 1.25 8.333 1.25h11.333c1.879 0 3.68.746 5.009 2.075s2.075 3.13 2.075 5.009z"/>
		<g stroke-linecap="round"><path d="M12.583 26.75V14c0-3.1.708-5.667 5.667-5.667"/><path d="M9.75 15.417h8.5"/></g>
	</symbol>

	<symbol>

	</symbol>

</svg>