<svg xmlns="http://www.w3.org/2000/svg" width="136" height="41" ><path d="M.764.305h6.074c1.872 0 3.541.285 5.006.855s2.696 1.353 3.693 2.35a9.58 9.58 0 0 1 2.289 3.541c.529 1.343.794 2.808.794 4.395s-.285 3.062-.855 4.426a10.42 10.42 0 0 1-2.411 3.54c-1.017.977-2.238 1.75-3.663 2.32s-2.981.855-4.67.855H.764V.305zm4.151 3.846v14.59h1.618c1.221 0 2.32-.183 3.296-.549s1.801-.875 2.472-1.526c.692-.671 1.221-1.445 1.587-2.32.387-.895.58-1.862.58-2.9 0-1.078-.163-2.055-.488-2.93a6.08 6.08 0 0 0-1.496-2.32c-.671-.651-1.516-1.15-2.533-1.496-1.017-.366-2.218-.549-3.602-.549H4.915zM21.776.305h13.216v3.968h-9.065v5.128h9.065v3.968h-9.065v5.25h9.065v3.968H21.776V.305zm16.75 0h4.151v18.313h8.149v3.968h-12.3V.305zm16.069 0h4.151v22.281h-4.151V.305zm18.938 22.587c-1.709 0-3.276-.295-4.7-.885-1.404-.61-2.605-1.424-3.602-2.442a11.09 11.09 0 0 1-2.32-3.632c-.549-1.404-.824-2.9-.824-4.487 0-1.669.295-3.195.885-4.578.59-1.404 1.394-2.615 2.411-3.632A11.25 11.25 0 0 1 69.015.855C70.419.285 71.925 0 73.533 0a11.17 11.17 0 0 1 2.991.397c.977.265 1.882.641 2.716 1.129.855.468 1.618 1.048 2.289 1.74a10.58 10.58 0 0 1 1.77 2.259l-3.632 2.32c-.651-1.16-1.475-2.075-2.472-2.747S74.977 4.09 73.533 4.09c-1.058 0-2.035.193-2.93.58a6.75 6.75 0 0 0-2.32 1.557c-.651.651-1.16 1.424-1.526 2.32s-.549 1.862-.549 2.9c0 1.017.183 1.974.549 2.869.366.875.865 1.648 1.496 2.32.651.651 1.414 1.17 2.289 1.557.895.366 1.862.549 2.9.549 1.546 0 2.849-.387 3.907-1.16a8.03 8.03 0 0 0 2.503-3.022l3.785 1.984c-.488.936-1.089 1.801-1.801 2.594a11.74 11.74 0 0 1-2.35 2.015c-.855.549-1.791.977-2.808 1.282a10.68 10.68 0 0 1-3.144.458zM92.789.305h4.182l7.936 22.281h-4.334l-1.374-3.968h-8.638l-1.374 3.968h-4.334L92.789.305zm-.824 14.345h5.86l-2.93-8.455-2.93 8.455zm17.386-10.377h-5.952V.305h16.085v3.968h-5.982v18.313h-4.151V4.273zM122.784.305H136v3.968h-9.065v5.128H136v3.968h-9.065v5.25H136v3.968h-13.216V.305z" fill="#ffc700"/><path d="M99.91 37.825c-.165.772 0 1.453.494 2.044s1.139.886 1.933.886h6.737l.63-2.606h-3.125v-.008h-3.509a.33.33 0 0 1-.264-.119c-.068-.079-.094-.173-.077-.281l1.329-5.501c.028-.085.076-.153.145-.204s.133-.077.195-.077h2.206 4.582l.63-2.614h-7.869c-1.175 0-1.99.63-2.444 1.891l-1.593 6.592zm11.079 2.929h2.691l.767-3.142h4.054l.638-2.614h-4.062l.673-2.759c.023-.085.065-.153.128-.204s.133-.077.195-.077h4.599l-1.379 5.646-.767 3.151h2.708l2.768-11.412h-8.32c-1.124 0-1.911.63-2.359 1.891l-2.334 9.521zm19.595 0h3.032l-2.231-3.696h1.039c.585 0 1.098-.176 1.541-.528a2.41 2.41 0 0 0 .877-1.354l.503-2.265.145-.639c.159-.772-.009-1.453-.503-2.044-.488-.59-1.127-.886-1.916-.886h-5.544c-1.164 0-1.967.627-2.41 1.882l-2.248 9.513h2.836l.161-.715.137-.63.127-.528.103-.443.085-.375.068-.298.051-.238.043-.179c.017-.051.028-.094.034-.128l.025-.094c.006-.023.009-.04.009-.051.005-.017.008-.028.008-.034 0 .023-.003.028-.008.034h1.797l2.239 3.696zm1.678-6.583a.33.33 0 0 1-.341.239h-4.743l.477-2.18c.023-.08.068-.145.136-.196.068-.057.133-.085.196-.085h4.377c.102 0 .188.043.256.128a.32.32 0 0 1 .076.273l-.434 1.822z" fill="#e0e0e0"/></svg>